# Vectary OBJ Export units=mm
mtllib userPIn.mtl 
o 000_Layer_2
g Layer_2
usemtl _100001
v 8.980 5.641 -24.875
v 0.320 0.101 -1.243
v 10.320 0.642 -24.989
v 5.320 9.300 -24.792
v 0.320 10.640 -24.762
v -4.680 9.300 -24.792
v -8.340 5.641 -24.875
v -9.680 0.642 -24.989
v -8.340 -4.357 -25.103
v -4.680 -8.016 -25.187
v 0.320 -9.355 -25.217
v 5.320 -8.016 -25.187
v 8.980 -4.357 -25.103
vn 0.895 0.231 0.382
vn 0.655 0.646 0.391
vn 0.895 0.231 0.382
vn 0.655 0.646 0.391
vn 0.240 0.886 0.397
vn -0.240 0.886 0.397
vn -0.655 0.646 0.391
vn -0.895 0.231 0.382
vn -0.895 -0.249 0.371
vn -0.655 -0.664 0.362
vn -0.240 -0.903 0.356
vn 0.240 -0.903 0.356
vn 0.655 -0.664 0.362
vn 0.895 -0.249 0.371
vn 0.895 0.231 0.382
vn 0.895 -0.249 0.371
vn 0.655 0.646 0.391
vn 0.240 0.886 0.397
vn 0.240 0.886 0.397
vn -0.240 0.886 0.397
vn -0.240 0.886 0.397
vn -0.655 0.646 0.391
vn -0.655 0.646 0.391
vn -0.895 0.231 0.382
vn -0.895 0.231 0.382
vn -0.895 -0.249 0.371
vn -0.895 -0.249 0.371
vn -0.655 -0.664 0.362
vn -0.655 -0.664 0.362
vn -0.240 -0.903 0.356
vn -0.240 -0.903 0.356
vn 0.240 -0.903 0.356
vn 0.240 -0.903 0.356
vn 0.655 -0.664 0.362
vn 0.655 -0.664 0.362
vn 0.895 -0.249 0.371
f 1//1 2//3 3//15 
f 4//17 2//4 1//2 
f 5//19 2//5 4//18 
f 6//21 2//6 5//20 
f 7//23 2//7 6//22 
f 8//25 2//8 7//24 
f 9//27 2//9 8//26 
f 10//29 2//10 9//28 
f 11//31 2//11 10//30 
f 12//33 2//12 11//32 
f 13//35 2//13 12//34 
f 3//16 2//14 13//36 
o 001_Layer_4
g Layer_4
usemtl _100002
v 9.331 -13.560 -34.113
v 14.839 0.860 -25.201
v 0.418 -8.052 -19.693
v 0.418 9.772 -19.693
v -14.002 0.860 -25.201
v -8.494 -13.560 -34.113
v 9.331 15.280 -34.113
v 14.839 0.860 -43.025
v 0.418 -8.052 -48.533
v -14.002 0.860 -43.025
v -8.494 15.280 -34.113
v 0.418 9.772 -48.533
vn 0.577 -0.577 0.577
vn 0.000 -0.934 0.357
vn 0.934 -0.357 0.000
vn 0.000 -0.934 -0.357
vn 0.577 -0.577 -0.577
vn 0.577 -0.577 0.577
vn 0.357 0.000 0.934
vn 0.577 0.577 0.577
vn 0.934 -0.357 0.000
vn 0.934 0.357 0.000
vn 0.577 -0.577 0.577
vn 0.357 0.000 0.934
vn -0.357 0.000 0.934
vn -0.577 -0.577 0.577
vn 0.000 -0.934 0.357
vn 0.357 0.000 0.934
vn -0.357 0.000 0.934
vn 0.577 0.577 0.577
vn -0.577 0.577 0.577
vn 0.000 0.934 0.357
vn -0.357 0.000 0.934
vn -0.577 -0.577 0.577
vn -0.934 -0.357 0.000
vn -0.577 0.577 0.577
vn -0.934 0.357 0.000
vn -0.577 -0.577 0.577
vn 0.000 -0.934 0.357
vn 0.000 -0.934 -0.357
vn -0.934 -0.357 0.000
vn -0.577 -0.577 -0.577
vn 0.577 0.577 0.577
vn 0.577 0.577 -0.577
vn 0.000 0.934 -0.357
vn 0.934 0.357 0.000
vn 0.000 0.934 0.357
vn 0.934 -0.357 0.000
vn 0.577 0.577 -0.577
vn 0.357 0.000 -0.934
vn 0.934 0.357 0.000
vn 0.577 -0.577 -0.577
vn 0.000 -0.934 -0.357
vn 0.357 0.000 -0.934
vn -0.357 0.000 -0.934
vn 0.577 -0.577 -0.577
vn -0.577 -0.577 -0.577
vn -0.934 -0.357 0.000
vn -0.357 0.000 -0.934
vn -0.577 0.577 -0.577
vn -0.577 -0.577 -0.577
vn -0.934 0.357 0.000
vn -0.577 0.577 0.577
vn -0.577 0.577 -0.577
vn 0.000 0.934 -0.357
vn -0.934 0.357 0.000
vn 0.000 0.934 0.357
vn 0.577 0.577 -0.577
vn 0.357 0.000 -0.934
vn -0.357 0.000 -0.934
vn -0.577 0.577 -0.577
vn 0.000 0.934 -0.357
f 14//37 15//42 16//47 
f 15//43 17//52 16//48 
f 17//53 18//57 16//49 
f 18//58 19//62 16//50 
f 19//63 14//38 16//51 
f 15//44 20//67 17//54 
f 14//39 21//72 15//45 
f 19//64 22//77 14//40 
f 18//59 23//82 19//65 
f 17//55 24//87 18//60 
f 20//68 21//73 25//92 
f 21//74 22//78 25//93 
f 22//79 23//83 25//94 
f 23//84 24//88 25//95 
f 24//89 20//69 25//96 
f 20//70 15//46 21//75 
f 21//76 14//41 22//80 
f 22//81 19//66 23//85 
f 23//86 18//61 24//90 
f 24//91 17//56 20//71 
